ffmpeg started on 2016-11-29 at 12:18:54
Report written to "Output/x264/results/ffmpeg/old_town_cross_2160p50superfast15000k.log"
Command line:
Tools/ffmpeg/ffmpeg -benchmark -y -i Input/y4m/old_town_cross_2160p50.y4m -c:v libx264 -preset superfast -b:v 15000k -an Output/x264/encoded/old_town_cross_2160p50superfast15000k.mkv
ffmpeg version N-82227-gdb23fde Copyright (c) 2000-2016 the FFmpeg developers
  built with gcc 5.4.0 (Ubuntu 5.4.0-6ubuntu1~16.04.2) 20160609
  configuration: --prefix=/home/jaroslav/ffmpeg_build --pkg-config-flags=--static --extra-cflags=-I/home/jaroslav/ffmpeg_build/include --extra-ldflags=-L/home/jaroslav/ffmpeg_build/lib --bindir=/home/jaroslav/bin --enable-gpl --enable-libass --enable-libfdk-aac --enable-libfreetype --enable-libmp3lame --enable-libopus --enable-libtheora --enable-libvorbis --enable-libvpx --enable-libx264 --enable-libx265 --enable-nvenc --enable-libmfx --enable-libxvid --enable-libgsm --enable-libopencore-amrnb --enable-version3 --enable-nonfree
  libavutil      55. 35.100 / 55. 35.100
  libavcodec     57. 66.101 / 57. 66.101
  libavformat    57. 57.100 / 57. 57.100
  libavdevice    57.  2.100 / 57.  2.100
  libavfilter     6. 66.100 /  6. 66.100
  libswscale      4.  3.100 /  4.  3.100
  libswresample   2.  4.100 /  2.  4.100
  libpostproc    54.  2.100 / 54.  2.100
Input #0, yuv4mpegpipe, from 'Input/y4m/old_town_cross_2160p50.y4m':
  Duration: 00:00:10.00, start: 0.000000, bitrate: 4976642 kb/s
    Stream #0:0: Video: rawvideo (I420 / 0x30323449), yuv420p(progressive), 3840x2160, SAR 1:1 DAR 16:9, 50 fps, 50 tbr, 50 tbn, 50 tbc
[libx264 @ 0x32d0120] using SAR=1/1
[libx264 @ 0x32d0120] using cpu capabilities: MMX2 SSE2Fast SSSE3 SSE4.2 AVX FMA3 AVX2 LZCNT BMI2
[libx264 @ 0x32d0120] profile High, level 5.2
[libx264 @ 0x32d0120] 264 - core 148 - H.264/MPEG-4 AVC codec - Copyleft 2003-2016 - http://www.videolan.org/x264.html - options: cabac=1 ref=1 deblock=1:0:0 analyse=0x3:0x3 me=dia subme=1 psy=1 psy_rd=1.00:0.00 mixed_ref=0 me_range=16 chroma_me=1 trellis=0 8x8dct=1 cqm=0 deadzone=21,11 fast_pskip=1 chroma_qp_offset=0 threads=6 lookahead_threads=1 sliced_threads=0 nr=0 decimate=1 interlaced=0 bluray_compat=0 constrained_intra=0 bframes=3 b_pyramid=2 b_adapt=1 b_bias=0 direct=1 weightb=1 open_gop=0 weightp=1 keyint=250 keyint_min=25 scenecut=40 intra_refresh=0 rc=abr mbtree=0 bitrate=15000 ratetol=1.0 qcomp=0.60 qpmin=0 qpmax=69 qpstep=4 ip_ratio=1.40 pb_ratio=1.30 aq=1:1.00
Output #0, matroska, to 'Output/x264/encoded/old_town_cross_2160p50superfast15000k.mkv':
  Metadata:
    encoder         : Lavf57.57.100
    Stream #0:0: Video: h264 (libx264) (H264 / 0x34363248), yuv420p, 3840x2160 [SAR 1:1 DAR 16:9], q=-1--1, 15000 kb/s, 50 fps, 1k tbn, 50 tbc
    Metadata:
      encoder         : Lavc57.66.101 libx264
    Side data:
      cpb: bitrate max/min/avg: 0/0/15000000 buffer size: 0 vbv_delay: -1
Stream mapping:
  Stream #0:0 -> #0:0 (rawvideo (native) -> h264 (libx264))
Press [q] to stop, [?] for help
frame=   23 fps=0.0 q=32.0 size=       1kB time=00:00:00.14 bitrate=  41.6kbits/s speed=0.277x    frame=   43 fps= 40 q=37.0 size=       1kB time=00:00:00.54 bitrate=  10.8kbits/s speed=0.503x    frame=   63 fps= 38 q=32.0 size=       1kB time=00:00:00.94 bitrate=   6.2kbits/s speed=0.573x    frame=   83 fps= 37 q=32.0 size=       1kB time=00:00:01.34 bitrate=   4.4kbits/s speed=0.604x    frame=  103 fps= 37 q=31.0 size=       1kB time=00:00:01.74 bitrate=   3.4kbits/s speed=0.626x    frame=  123 fps= 37 q=32.0 size=       1kB time=00:00:02.14 bitrate=   2.7kbits/s speed=0.64x    frame=  143 fps= 37 q=32.0 size=       1kB time=00:00:02.54 bitrate=   2.3kbits/s speed=0.65x    frame=  163 fps= 36 q=32.0 size=    5124kB time=00:00:02.94 bitrate=14272.6kbits/s speed=0.657x    frame=  183 fps= 36 q=32.0 size=    5124kB time=00:00:03.34 bitrate=12563.8kbits/s speed=0.663x    frame=  203 fps= 36 q=31.0 size=    5124kB time=00:00:03.74 bitrate=11220.5kbits/s speed=0.667x    frame=  223 fps= 36 q=32.0 size=    5124kB time=00:00:04.14 bitrate=10136.6kbits/s speed=0.67x    frame=  243 fps= 36 q=32.0 size=    5124kB time=00:00:04.54 bitrate=9243.7kbits/s speed=0.673x    frame=  265 fps= 36 q=32.0 size=    9446kB time=00:00:04.98 bitrate=15535.7kbits/s speed=0.678x    frame=  285 fps= 36 q=32.0 size=    9446kB time=00:00:05.38 bitrate=14380.8kbits/s speed=0.681x    frame=  305 fps= 36 q=32.0 size=    9446kB time=00:00:05.78 bitrate=13385.8kbits/s speed=0.682x    frame=  325 fps= 36 q=32.0 size=    9446kB time=00:00:06.18 bitrate=12519.5kbits/s speed=0.683x    frame=  345 fps= 36 q=32.0 size=    9446kB time=00:00:06.58 bitrate=11758.6kbits/s speed=0.684x    frame=  365 fps= 36 q=32.0 size=    9446kB time=00:00:06.98 bitrate=11084.8kbits/s speed=0.685x    frame=  385 fps= 36 q=32.0 size=    9446kB time=00:00:07.38 bitrate=10484.1kbits/s speed=0.686x    frame=  405 fps= 36 q=32.0 size=   14566kB time=00:00:07.78 bitrate=15335.8kbits/s speed=0.687x    frame=  425 fps= 36 q=32.0 size=   14566kB time=00:00:08.18 bitrate=14586.0kbits/s speed=0.688x    frame=  445 fps= 36 q=32.0 size=   14566kB time=00:00:08.58 bitrate=13906.1kbits/s speed=0.689x    frame=  465 fps= 36 q=32.0 size=   14566kB time=00:00:08.98 bitrate=13286.7kbits/s speed=0.689x    frame=  485 fps= 36 q=32.0 size=   14566kB time=00:00:09.38 bitrate=12720.2kbits/s speed=0.689x    frame=  500 fps= 35 q=-1.0 Lsize=   18735kB time=00:00:09.94 bitrate=15438.4kbits/s speed=0.696x    
video:18730kB audio:0kB subtitle:0kB other streams:0kB global headers:0kB muxing overhead: 0.023989%
bench: utime=40.672s
bench: maxrss=895292kB
[libx264 @ 0x32d0120] frame I:2     Avg QP:33.55  size:290893
[libx264 @ 0x32d0120] frame P:126   Avg QP:30.66  size: 97235
[libx264 @ 0x32d0120] frame B:372   Avg QP:32.72  size: 17058
[libx264 @ 0x32d0120] consecutive B-frames:  0.8%  0.0%  0.0% 99.2%
[libx264 @ 0x32d0120] mb I  I16..4: 45.5% 48.0%  6.5%
[libx264 @ 0x32d0120] mb P  I16..4: 14.1%  4.1%  0.0%  P16..4: 34.0%  0.0%  0.0%  0.0%  0.0%    skip:47.8%
[libx264 @ 0x32d0120] mb B  I16..4:  1.6%  0.3%  0.0%  B16..8:  9.5%  0.0%  0.0%  direct: 6.1%  skip:82.5%  L0:40.0% L1:57.9% BI: 2.2%
[libx264 @ 0x32d0120] final ratefactor: 26.17
[libx264 @ 0x32d0120] 8x8 transform intra:22.7% inter:49.4%
[libx264 @ 0x32d0120] coded y,uvDC,uvAC intra: 70.9% 58.4% 43.4% inter: 3.3% 3.5% 0.0%
[libx264 @ 0x32d0120] i16 v,h,dc,p: 21% 17% 54%  7%
[libx264 @ 0x32d0120] i8 v,h,dc,ddl,ddr,vr,hd,vl,hu:  6%  9% 70%  3%  2%  2%  3%  2%  4%
[libx264 @ 0x32d0120] i4 v,h,dc,ddl,ddr,vr,hd,vl,hu: 21% 29% 11%  7%  5%  5%  8%  5%  8%
[libx264 @ 0x32d0120] i8c dc,h,v,p: 80% 10%  9%  1%
[libx264 @ 0x32d0120] Weighted P-Frames: Y:0.0% UV:0.0%
[libx264 @ 0x32d0120] kb/s:15343.11
